<svg xmlns="http://www.w3.org/2000/svg" xmlns:xlink="http://www.w3.org/1999/xlink" width="300" zoomAndPan="magnify" viewBox="0 0 224.87999 121.500001" height="162" preserveAspectRatio="xMidYMid meet" version="1.0"><defs><clipPath id="4bd29f1a7d"><path d="M 0.402344 0 L 224.359375 0 L 224.359375 121.003906 L 0.402344 121.003906 Z M 0.402344 0 " clip-rule="nonzero"/></clipPath><clipPath id="59cc729804"><path d="M 82.609375 32.085938 L 142.363281 32.085938 L 142.363281 88.851562 L 82.609375 88.851562 Z M 82.609375 32.085938 " clip-rule="nonzero"/></clipPath></defs><g clip-path="url(#4bd29f1a7d)"><path fill="#ffffff" d="M 0.402344 0 L 224.480469 0 L 224.480469 377.945312 L 0.402344 377.945312 Z M 0.402344 0 " fill-opacity="1" fill-rule="nonzero"/><path fill="#ffffff" d="M 0.402344 0 L 224.480469 0 L 224.480469 121.003906 L 0.402344 121.003906 Z M 0.402344 0 " fill-opacity="1" fill-rule="nonzero"/><path fill="#b82727" d="M 0.402344 0 L 224.480469 0 L 224.480469 121.003906 L 0.402344 121.003906 Z M 0.402344 0 " fill-opacity="1" fill-rule="nonzero"/></g><g clip-path="url(#59cc729804)"><path fill="#ffffff" d="M 84.675781 87.855469 C 84.675781 87.855469 86.28125 81.449219 87.855469 75.171875 C 89.503906 68.589844 95.433594 63.972656 102.238281 63.972656 C 109.039062 63.972656 114.96875 68.589844 116.621094 75.171875 C 118.191406 81.449219 119.796875 87.855469 119.796875 87.855469 C 119.929688 88.382812 120.46875 88.703125 120.996094 88.570312 C 121.527344 88.441406 121.847656 87.902344 121.714844 87.375 C 121.714844 87.375 120.109375 80.972656 118.535156 74.691406 C 116.667969 67.234375 109.945312 62 102.238281 62 C 94.527344 62 87.808594 67.234375 85.9375 74.691406 C 84.363281 80.972656 82.757812 87.375 82.757812 87.375 C 82.625 87.902344 82.949219 88.441406 83.476562 88.570312 C 84.007812 88.703125 84.542969 88.382812 84.675781 87.855469 Z M 102.238281 32.199219 C 94.878906 32.199219 88.902344 38.160156 88.902344 45.5 C 88.902344 52.84375 94.878906 58.800781 102.238281 58.800781 C 109.597656 58.800781 115.570312 52.84375 115.570312 45.5 C 115.570312 38.160156 109.597656 32.199219 102.238281 32.199219 Z M 102.238281 34.171875 C 108.507812 34.171875 113.59375 39.25 113.59375 45.5 C 113.59375 51.753906 108.507812 56.828125 102.238281 56.828125 C 95.96875 56.828125 90.878906 51.753906 90.878906 45.5 C 90.878906 39.25 95.96875 34.171875 102.238281 34.171875 Z M 134.09375 35.277344 L 134.09375 43.527344 L 142.363281 43.527344 L 142.363281 45.5 L 134.09375 45.5 L 134.09375 53.75 C 134.09375 54.277344 133.675781 54.707031 133.15625 54.734375 L 133.105469 54.734375 C 132.558594 54.734375 132.117188 54.292969 132.117188 53.75 L 132.117188 45.5 L 123.84375 45.5 L 123.84375 43.527344 L 132.117188 43.527344 L 132.117188 35.277344 Z M 134.09375 35.277344 " fill-opacity="1" fill-rule="evenodd"/></g></svg>