<svg xmlns="http://www.w3.org/2000/svg" xmlns:xlink="http://www.w3.org/1999/xlink" width="300" zoomAndPan="magnify" viewBox="0 0 224.87999 121.500001" height="162" preserveAspectRatio="xMidYMid meet" version="1.0"><defs><clipPath id="6827ec5727"><path d="M 0.402344 0 L 224.359375 0 L 224.359375 121.003906 L 0.402344 121.003906 Z M 0.402344 0 " clip-rule="nonzero"/></clipPath><clipPath id="ff2d0e4115"><path d="M 81.605469 29.152344 L 143.597656 29.152344 L 143.597656 91.894531 L 81.605469 91.894531 Z M 81.605469 29.152344 " clip-rule="nonzero"/></clipPath></defs><g clip-path="url(#6827ec5727)"><path fill="#ffffff" d="M 0.402344 0 L 224.480469 0 L 224.480469 121.003906 L 0.402344 121.003906 Z M 0.402344 0 " fill-opacity="1" fill-rule="nonzero"/><path fill="#e89029" d="M 0.402344 0 L 224.480469 0 L 224.480469 121.003906 L 0.402344 121.003906 Z M 0.402344 0 " fill-opacity="1" fill-rule="nonzero"/></g><g clip-path="url(#ff2d0e4115)"><path fill="#ffffff" d="M 143.5 59.824219 C 143.472656 59.375 143.382812 58.9375 143.230469 58.515625 C 142.980469 57.804688 142.589844 57.183594 142.058594 56.652344 C 141.191406 55.792969 140.148438 55.320312 138.929688 55.230469 C 138.890625 55 138.835938 54.769531 138.761719 54.546875 C 138.515625 53.789062 138.105469 53.132812 137.53125 52.574219 L 137.433594 52.476562 C 136.566406 51.664062 135.539062 51.222656 134.351562 51.152344 L 134.011719 51.136719 C 133.351562 51.132812 132.714844 51.257812 132.105469 51.507812 C 131.496094 51.757812 130.957031 52.117188 130.492188 52.582031 L 118.859375 64.167969 L 97.722656 64.1875 L 97.660156 64.179688 C 96.9375 64.125 96.242188 64.226562 95.566406 64.480469 C 94.921875 64.714844 94.355469 65.070312 93.863281 65.542969 L 82 77.351562 C 81.734375 77.609375 81.605469 77.925781 81.617188 78.296875 L 81.617188 90.347656 L 81.605469 90.453125 C 81.605469 90.628906 81.640625 90.792969 81.707031 90.957031 C 81.773438 91.117188 81.871094 91.257812 81.992188 91.378906 C 82.117188 91.503906 82.257812 91.597656 82.417969 91.664062 C 82.582031 91.730469 82.75 91.765625 82.921875 91.765625 L 93.667969 91.757812 C 94.039062 91.757812 94.359375 91.625 94.621094 91.359375 L 97.21875 88.652344 L 121.753906 82.507812 C 122.65625 82.199219 123.480469 81.753906 124.230469 81.167969 C 125.011719 80.570312 125.746094 79.914062 126.429688 79.207031 L 142.054688 63.664062 C 142.417969 63.304688 142.714844 62.898438 142.949219 62.449219 C 143.378906 61.625 143.5625 60.75 143.5 59.824219 Z M 132.355469 54.429688 C 132.816406 53.976562 133.367188 53.753906 134.011719 53.753906 L 134.136719 53.753906 C 134.738281 53.785156 135.25 54.007812 135.679688 54.429688 C 135.945312 54.695312 136.144531 55.003906 136.269531 55.359375 C 136.308594 55.476562 136.332031 55.59375 136.339844 55.714844 C 135.851562 55.957031 135.414062 56.265625 135.023438 56.644531 L 124.140625 67.476562 C 123.898438 66.765625 123.507812 66.144531 122.972656 65.613281 C 122.65625 65.308594 122.308594 65.046875 121.921875 64.828125 Z M 140.882812 60.15625 C 140.878906 60.800781 140.648438 61.351562 140.191406 61.804688 L 124.550781 77.382812 C 123.960938 77.996094 123.328125 78.558594 122.652344 79.078125 C 122.164062 79.46875 121.628906 79.773438 121.042969 79.988281 L 96.222656 86.207031 C 95.957031 86.265625 95.734375 86.398438 95.554688 86.605469 L 93.113281 89.140625 L 84.242188 89.140625 L 84.242188 78.828125 L 95.6875 67.421875 C 96.191406 66.941406 96.792969 66.730469 97.488281 66.792969 L 119.453125 66.785156 C 120.046875 66.785156 120.566406 66.984375 121.011719 67.378906 L 121.101562 67.46875 C 121.523438 67.882812 121.753906 68.386719 121.789062 68.976562 L 121.789062 69.117188 C 121.789062 69.761719 121.558594 70.3125 121.101562 70.765625 C 120.648438 71.226562 120.097656 71.453125 119.453125 71.453125 L 104.292969 71.453125 C 104.117188 71.449219 103.945312 71.480469 103.777344 71.542969 C 103.613281 71.609375 103.464844 71.703125 103.339844 71.824219 C 103.210938 71.949219 103.113281 72.09375 103.042969 72.253906 C 102.972656 72.417969 102.9375 72.589844 102.9375 72.765625 C 102.9375 72.945312 102.972656 73.113281 103.042969 73.277344 C 103.113281 73.441406 103.210938 73.582031 103.339844 73.707031 C 103.464844 73.832031 103.613281 73.925781 103.777344 73.988281 C 103.945312 74.054688 104.117188 74.082031 104.292969 74.078125 L 119.453125 74.078125 C 120.113281 74.082031 120.746094 73.953125 121.359375 73.703125 C 121.96875 73.449219 122.503906 73.089844 122.96875 72.625 C 123.273438 72.3125 123.53125 71.964844 123.746094 71.585938 L 136.878906 58.511719 C 137.335938 58.050781 137.886719 57.820312 138.535156 57.824219 L 138.652344 57.824219 C 139.253906 57.851562 139.769531 58.074219 140.195312 58.5 C 140.617188 58.925781 140.84375 59.4375 140.882812 60.03125 Z M 98.609375 40.804688 L 98.65625 40.953125 C 99.046875 41.976562 99.625 42.878906 100.394531 43.664062 C 101.332031 44.628906 102.289062 45.574219 103.28125 46.546875 L 103.535156 46.804688 C 105.410156 48.667969 107.285156 50.535156 109.152344 52.402344 C 109.628906 52.941406 110.210938 53.308594 110.90625 53.496094 L 111.742188 53.515625 L 111.820312 53.496094 C 112.515625 53.308594 113.097656 52.941406 113.574219 52.402344 C 114.871094 51.101562 116.179688 49.800781 117.492188 48.5 L 120.023438 45.984375 C 120.792969 45.214844 121.570312 44.445312 122.324219 43.667969 C 123.121094 42.863281 123.714844 41.925781 124.101562 40.863281 C 124.324219 40.261719 124.472656 39.644531 124.542969 39.011719 C 124.574219 38.867188 124.59375 38.726562 124.609375 38.578125 L 124.609375 37.417969 L 124.507812 36.75 C 124.316406 35.445312 123.832031 34.261719 123.058594 33.191406 C 122.285156 32.121094 121.308594 31.289062 120.128906 30.695312 L 120 30.628906 C 118.835938 30.058594 117.605469 29.773438 116.3125 29.769531 C 115.90625 29.765625 115.507812 29.796875 115.105469 29.855469 C 113.773438 30.058594 112.5625 30.558594 111.480469 31.363281 L 111.363281 31.433594 L 111.316406 31.402344 C 110.703125 30.945312 110.042969 30.578125 109.328125 30.304688 C 108.617188 30.035156 107.878906 29.863281 107.117188 29.796875 C 106.355469 29.730469 105.597656 29.769531 104.847656 29.914062 C 104.097656 30.058594 103.382812 30.304688 102.703125 30.648438 C 102.640625 30.679688 102.578125 30.710938 102.601562 30.699219 C 101.417969 31.289062 100.4375 32.121094 99.664062 33.191406 C 98.886719 34.257812 98.402344 35.445312 98.207031 36.75 L 98.121094 37.300781 L 98.109375 38.582031 L 98.164062 38.953125 C 98.238281 39.585938 98.386719 40.203125 98.609375 40.804688 Z M 100.742188 36.667969 L 100.816406 36.589844 L 100.816406 36.394531 C 100.828125 36.359375 100.839844 36.328125 100.84375 36.292969 C 100.910156 36.113281 100.984375 35.933594 101.058594 35.757812 C 101.121094 35.613281 101.183594 35.464844 101.207031 35.390625 L 101.304688 35.175781 C 101.824219 34.171875 102.585938 33.417969 103.59375 32.902344 C 103.671875 32.878906 103.746094 32.851562 103.816406 32.8125 L 103.9375 32.761719 C 104.066406 32.699219 104.195312 32.644531 104.328125 32.597656 C 104.644531 32.480469 104.964844 32.394531 105.296875 32.335938 C 105.5625 32.28125 105.828125 32.246094 106.097656 32.230469 C 106.191406 32.222656 106.277344 32.222656 106.367188 32.222656 C 107.34375 32.230469 108.265625 32.457031 109.132812 32.902344 L 109.191406 32.929688 C 109.609375 33.175781 110 33.460938 110.355469 33.789062 L 110.460938 33.878906 C 110.550781 33.957031 110.644531 34.027344 110.746094 34.09375 L 110.824219 34.136719 C 110.847656 34.148438 110.875 34.164062 110.898438 34.171875 L 111.195312 34.273438 L 111.835938 34.234375 L 111.980469 34.09375 C 112.082031 34.027344 112.175781 33.953125 112.269531 33.875 L 112.367188 33.796875 C 112.710938 33.480469 113.082031 33.203125 113.484375 32.964844 L 113.605469 32.898438 C 114.558594 32.394531 115.570312 32.171875 116.648438 32.230469 C 116.914062 32.25 117.179688 32.285156 117.445312 32.335938 C 117.78125 32.398438 118.109375 32.488281 118.429688 32.605469 C 118.550781 32.648438 118.667969 32.695312 118.785156 32.75 L 118.914062 32.8125 C 118.984375 32.847656 119.058594 32.878906 119.136719 32.902344 C 120.175781 33.429688 120.953125 34.214844 121.464844 35.257812 L 121.625 35.652344 C 121.695312 35.808594 121.761719 35.96875 121.824219 36.125 L 121.824219 36.300781 L 121.957031 36.566406 C 122.089844 37.039062 122.160156 37.523438 122.167969 38.019531 C 122.171875 38.511719 122.109375 38.996094 121.984375 39.476562 C 121.859375 39.953125 121.671875 40.40625 121.421875 40.832031 C 121.175781 41.257812 120.875 41.648438 120.519531 41.992188 C 118.457031 44.105469 116.320312 46.21875 114.253906 48.261719 C 113.34375 49.164062 112.429688 50.070312 111.519531 50.972656 C 111.375 51.113281 111.375 51.144531 111.203125 50.972656 L 108.542969 48.335938 C 106.421875 46.234375 104.296875 44.128906 102.199219 41.992188 C 101.492188 41.300781 101.011719 40.476562 100.75 39.527344 C 100.488281 38.574219 100.488281 37.621094 100.742188 36.667969 Z M 100.742188 36.667969 " fill-opacity="1" fill-rule="nonzero"/></g></svg>