<svg xmlns="http://www.w3.org/2000/svg" xmlns:xlink="http://www.w3.org/1999/xlink" width="300" zoomAndPan="magnify" viewBox="0 0 224.87999 121.500001" height="162" preserveAspectRatio="xMidYMid meet" version="1.0"><defs><clipPath id="345bc88182"><path d="M 0.402344 0 L 224.359375 0 L 224.359375 121.003906 L 0.402344 121.003906 Z M 0.402344 0 " clip-rule="nonzero"/></clipPath><clipPath id="8a07dc523e"><path d="M 79.128906 28 L 145.605469 28 L 145.605469 93.789062 L 79.128906 93.789062 Z M 79.128906 28 " clip-rule="nonzero"/></clipPath><clipPath id="fa27681598"><path d="M 84 80 L 86 80 L 86 93.789062 L 84 93.789062 Z M 84 80 " clip-rule="nonzero"/></clipPath></defs><g clip-path="url(#345bc88182)"><path fill="#ffffff" d="M 0.402344 0 L 224.480469 0 L 224.480469 121.003906 L 0.402344 121.003906 Z M 0.402344 0 " fill-opacity="1" fill-rule="nonzero"/><path fill="#002b64" d="M 0.402344 0 L 224.480469 0 L 224.480469 121.003906 L 0.402344 121.003906 Z M 0.402344 0 " fill-opacity="1" fill-rule="nonzero"/></g><g clip-path="url(#8a07dc523e)"><path fill="#ffffff" d="M 120.476562 53.398438 C 120.402344 53.441406 120.335938 53.492188 120.28125 53.554688 C 118.414062 55.054688 116.164062 56.597656 113.453125 58.164062 C 112.027344 57.339844 110.730469 56.527344 109.546875 55.71875 C 109.507812 55.683594 109.464844 55.65625 109.417969 55.628906 C 106.566406 53.667969 104.394531 51.757812 102.75 49.957031 C 102.691406 49.859375 102.617188 49.773438 102.523438 49.703125 C 98.480469 45.15625 97.773438 41.292969 97.863281 38.910156 C 97.988281 35.644531 99.757812 32.738281 102.378906 31.503906 C 103.53125 30.960938 104.648438 30.746094 105.691406 30.746094 C 109.6875 30.746094 112.640625 33.917969 112.796875 34.085938 C 112.964844 34.269531 113.203125 34.375 113.449219 34.375 C 113.449219 34.375 113.453125 34.375 113.453125 34.375 C 113.699219 34.375 113.9375 34.269531 114.105469 34.089844 C 114.300781 33.875 118.957031 28.882812 124.527344 31.503906 C 127.144531 32.738281 128.917969 35.644531 129.039062 38.910156 C 129.132812 41.347656 128.386719 45.34375 124.078125 50.035156 C 123.992188 50.101562 123.917969 50.179688 123.859375 50.273438 C 122.90625 51.285156 121.789062 52.332031 120.476562 53.398438 Z M 117.085938 67.617188 C 119.359375 67.617188 121.207031 69.46875 121.207031 71.75 C 121.207031 74.03125 119.359375 75.882812 117.085938 75.882812 C 116.605469 75.882812 116.140625 75.800781 115.710938 75.644531 C 115.445312 75.515625 115.171875 75.382812 114.890625 75.246094 C 113.738281 74.511719 112.96875 73.21875 112.96875 71.75 C 112.96875 69.46875 114.816406 67.617188 117.085938 67.617188 Z M 81.808594 66.957031 C 81.808594 64.152344 84.082031 61.867188 86.878906 61.867188 C 89.675781 61.867188 91.953125 64.152344 91.953125 66.957031 C 91.953125 69.765625 89.675781 72.050781 86.878906 72.050781 C 84.082031 72.050781 81.808594 69.765625 81.808594 66.957031 Z M 137.839844 62.765625 C 140.425781 62.765625 142.53125 64.878906 142.53125 67.472656 C 142.53125 70.070312 140.425781 72.183594 137.839844 72.183594 C 135.25 72.183594 133.144531 70.070312 133.144531 67.472656 C 133.144531 64.878906 135.25 62.765625 137.839844 62.765625 Z M 140.589844 73.347656 C 142.785156 72.308594 144.304688 70.066406 144.304688 67.472656 C 144.304688 63.894531 141.40625 60.984375 137.839844 60.984375 C 134.277344 60.984375 131.382812 63.882812 131.371094 67.453125 C 128.273438 62.507812 126.292969 54.972656 125.558594 51.03125 C 130.132812 45.953125 130.917969 41.546875 130.8125 38.84375 C 130.664062 34.917969 128.492188 31.40625 125.28125 29.894531 C 119.800781 27.3125 115.128906 30.738281 113.453125 32.246094 C 111.78125 30.738281 107.121094 27.304688 101.625 29.894531 C 98.410156 31.40625 96.238281 34.917969 96.089844 38.84375 C 95.988281 41.472656 96.726562 45.71875 100.988281 50.628906 C 98.625 57.890625 96.476562 63.871094 93.683594 67.714844 C 93.710938 67.464844 93.726562 67.214844 93.726562 66.957031 C 93.726562 63.167969 90.65625 60.085938 86.878906 60.085938 C 83.105469 60.085938 80.03125 63.167969 80.03125 66.957031 C 80.03125 69.738281 81.683594 72.132812 84.050781 73.214844 C 83.820312 73.308594 83.59375 73.402344 83.378906 73.503906 C 80.828125 74.683594 79.175781 77.304688 79.175781 80.175781 L 79.175781 92.886719 C 79.175781 93.378906 79.574219 93.777344 80.0625 93.777344 C 80.554688 93.777344 80.949219 93.378906 80.949219 92.886719 L 80.949219 80.175781 C 80.949219 77.996094 82.195312 76.011719 84.125 75.121094 C 85.164062 74.640625 86.421875 74.242188 87.859375 73.9375 C 95.007812 72.425781 98.359375 64.34375 102.371094 52.117188 C 102.984375 52.734375 103.652344 53.363281 104.386719 53.996094 C 101.710938 64.839844 98.609375 72.578125 95.863281 75.25 C 95.691406 75.417969 95.59375 75.648438 95.59375 75.890625 L 95.59375 92.886719 C 95.59375 93.378906 95.992188 93.777344 96.480469 93.777344 C 96.972656 93.777344 97.371094 93.378906 97.371094 92.886719 L 97.371094 76.257812 C 101.140625 72.246094 104.234375 61.855469 105.902344 55.25 C 106.542969 55.75 107.21875 56.257812 107.941406 56.765625 C 106.5625 61.132812 104.191406 70.613281 106.808594 77.699219 L 106.808594 92.886719 C 106.808594 93.378906 107.207031 93.777344 107.695312 93.777344 C 108.1875 93.777344 108.582031 93.378906 108.582031 92.886719 L 108.582031 77.535156 C 108.582031 77.429688 108.5625 77.320312 108.523438 77.21875 C 106.078125 70.804688 108.285156 61.757812 109.476562 57.808594 C 110.351562 58.382812 111.277344 58.957031 112.265625 59.535156 C 110.953125 64.355469 108.992188 74.226562 114.011719 76.792969 C 114.324219 76.984375 114.65625 77.148438 115 77.28125 C 120.191406 79.847656 121.207031 80.816406 121.207031 82.871094 L 121.207031 92.886719 C 121.207031 93.378906 121.601562 93.777344 122.09375 93.777344 C 122.582031 93.777344 122.980469 93.378906 122.980469 92.886719 L 122.980469 82.871094 C 122.980469 80.433594 121.820312 79.027344 118.964844 77.355469 C 121.296875 76.566406 122.980469 74.355469 122.980469 71.75 C 122.980469 68.488281 120.335938 65.835938 117.085938 65.835938 C 115.277344 65.835938 113.652344 66.660156 112.570312 67.957031 C 112.714844 65.445312 113.265625 62.601562 114.007812 59.898438 C 116.449219 58.503906 118.542969 57.121094 120.339844 55.757812 C 121.136719 59.550781 123.558594 69.878906 127.398438 75.664062 L 127.398438 92.886719 C 127.398438 93.378906 127.796875 93.777344 128.285156 93.777344 C 128.777344 93.777344 129.175781 93.378906 129.175781 92.886719 L 129.175781 75.390625 C 129.175781 75.210938 129.121094 75.035156 129.019531 74.886719 C 124.96875 68.972656 122.425781 57.132812 121.902344 54.519531 C 122.6875 53.867188 123.40625 53.21875 124.0625 52.582031 C 125.164062 57.734375 129.039062 72.859375 136.820312 73.957031 C 137.105469 74 143.78125 75.085938 143.78125 80.96875 L 143.78125 92.886719 C 143.78125 93.378906 144.179688 93.777344 144.667969 93.777344 C 145.160156 93.777344 145.558594 93.378906 145.558594 92.886719 L 145.558594 80.96875 C 145.558594 77.011719 143.101562 74.628906 140.589844 73.347656 " fill-opacity="1" fill-rule="nonzero"/></g><g clip-path="url(#fa27681598)"><path fill="#ffffff" d="M 85.054688 80.296875 C 84.5625 80.296875 84.164062 80.695312 84.164062 81.1875 L 84.164062 92.886719 C 84.164062 93.378906 84.5625 93.777344 85.054688 93.777344 C 85.542969 93.777344 85.941406 93.378906 85.941406 92.886719 L 85.941406 81.1875 C 85.941406 80.695312 85.542969 80.296875 85.054688 80.296875 " fill-opacity="1" fill-rule="nonzero"/></g></svg>