<svg xmlns="http://www.w3.org/2000/svg" xmlns:xlink="http://www.w3.org/1999/xlink" width="300" zoomAndPan="magnify" viewBox="0 0 224.87999 121.500001" height="162" preserveAspectRatio="xMidYMid meet" version="1.0"><defs><clipPath id="babaa16981"><path d="M 0.402344 0 L 224.359375 0 L 224.359375 121.003906 L 0.402344 121.003906 Z M 0.402344 0 " clip-rule="nonzero"/></clipPath><clipPath id="812e36d0b8"><path d="M 82.328125 30.390625 L 142.828125 30.390625 L 142.828125 90.890625 L 82.328125 90.890625 Z M 82.328125 30.390625 " clip-rule="nonzero"/></clipPath></defs><g clip-path="url(#babaa16981)"><path fill="#ffffff" d="M 0.402344 0 L 224.480469 0 L 224.480469 128.472656 L 0.402344 128.472656 Z M 0.402344 0 " fill-opacity="1" fill-rule="nonzero"/><path fill="#ffffff" d="M 0.402344 0 L 224.480469 0 L 224.480469 121.003906 L 0.402344 121.003906 Z M 0.402344 0 " fill-opacity="1" fill-rule="nonzero"/><path fill="#b82727" d="M 0.402344 0 L 224.480469 0 L 224.480469 121.003906 L 0.402344 121.003906 Z M 0.402344 0 " fill-opacity="1" fill-rule="nonzero"/></g><g clip-path="url(#812e36d0b8)"><path fill="#ffffff" d="M 142.292969 68.351562 L 134.914062 61.644531 C 134.78125 61.511719 134.644531 61.445312 134.511719 61.378906 L 122.171875 56.75 L 125.523438 54.066406 C 133.304688 47.695312 132.230469 40.988281 131.359375 38.371094 C 129.949219 33.945312 125.992188 30.722656 121.902344 30.457031 C 121.699219 30.457031 121.433594 30.457031 121.230469 30.457031 C 117.945312 30.457031 114.792969 31.796875 112.578125 34.210938 C 110.363281 31.796875 107.210938 30.457031 103.925781 30.457031 C 103.65625 30.457031 103.457031 30.457031 103.253906 30.457031 C 99.097656 30.722656 95.207031 33.945312 93.796875 38.371094 C 92.992188 40.988281 91.851562 47.695312 99.699219 54.132812 L 103.054688 56.816406 L 90.710938 61.445312 C 90.578125 61.511719 90.375 61.578125 90.308594 61.710938 L 82.933594 68.421875 C 82.460938 68.6875 82.328125 69.15625 82.394531 69.628906 C 82.460938 70.097656 82.796875 70.433594 83.265625 70.632812 L 89.773438 73.046875 L 89.773438 81.433594 C 89.773438 81.96875 90.109375 82.503906 90.644531 82.707031 L 112.109375 90.757812 C 112.242188 90.824219 112.445312 90.824219 112.578125 90.824219 C 112.710938 90.824219 112.914062 90.824219 113.046875 90.757812 L 134.511719 82.707031 C 135.046875 82.503906 135.382812 82.035156 135.382812 81.433594 L 135.382812 73.046875 L 141.890625 70.632812 C 142.292969 70.5 142.628906 70.097656 142.761719 69.628906 C 142.828125 69.15625 142.695312 68.6875 142.292969 68.351562 Z M 101.308594 52.054688 C 96.75 48.296875 94.871094 43.667969 96.347656 39.242188 C 97.417969 35.820312 100.371094 33.339844 103.457031 33.140625 C 103.65625 33.140625 103.792969 33.140625 103.992188 33.140625 C 106.945312 33.140625 109.828125 34.613281 111.574219 37.097656 C 111.839844 37.433594 112.242188 37.632812 112.644531 37.632812 C 113.046875 37.632812 113.449219 37.433594 113.71875 37.097656 C 115.394531 34.613281 118.28125 33.140625 121.230469 33.140625 C 121.433594 33.140625 121.566406 33.140625 121.769531 33.140625 C 124.851562 33.339844 127.738281 35.820312 128.878906 39.242188 C 130.285156 43.601562 128.476562 48.296875 123.914062 52.054688 L 112.578125 60.976562 Z M 86.285156 68.890625 L 91.449219 64.195312 L 110.097656 71.171875 L 104.933594 75.867188 Z M 111.238281 87.535156 L 92.457031 80.492188 L 92.457031 74.054688 L 104.730469 78.683594 C 105.199219 78.882812 105.738281 78.75 106.074219 78.414062 L 111.238281 73.71875 Z M 112.578125 69.292969 L 94.9375 62.652344 L 105.402344 58.695312 L 111.707031 63.65625 C 111.976562 63.859375 112.242188 63.925781 112.511719 63.925781 C 112.78125 63.925781 113.113281 63.859375 113.316406 63.65625 L 119.621094 58.695312 L 130.21875 62.652344 Z M 132.699219 80.492188 L 113.921875 87.535156 L 113.921875 73.71875 L 119.085938 78.414062 C 119.285156 78.617188 119.621094 78.75 119.957031 78.75 C 120.089844 78.75 120.292969 78.75 120.425781 78.683594 L 132.699219 74.054688 Z M 120.226562 75.867188 L 115.058594 71.171875 L 133.707031 64.195312 L 138.871094 68.890625 Z M 120.226562 75.867188 " fill-opacity="1" fill-rule="nonzero"/></g></svg>