<svg xmlns="http://www.w3.org/2000/svg" xmlns:xlink="http://www.w3.org/1999/xlink" width="300" zoomAndPan="magnify" viewBox="0 0 224.87999 121.500001" height="162" preserveAspectRatio="xMidYMid meet" version="1.0"><defs><clipPath id="04693eb761"><path d="M 0.402344 0 L 224.359375 0 L 224.359375 121.003906 L 0.402344 121.003906 Z M 0.402344 0 " clip-rule="nonzero"/></clipPath><clipPath id="fe857f5be6"><path d="M 82 33.015625 L 143 33.015625 L 143 88.289062 L 82 88.289062 Z M 82 33.015625 " clip-rule="nonzero"/></clipPath><clipPath id="8bee421387"><path d="M 77.371094 85 L 91 85 L 91 88.289062 L 77.371094 88.289062 Z M 77.371094 85 " clip-rule="nonzero"/></clipPath><clipPath id="cb4f7cfa93"><path d="M 134 85 L 147.582031 85 L 147.582031 88.289062 L 134 88.289062 Z M 134 85 " clip-rule="nonzero"/></clipPath></defs><g clip-path="url(#04693eb761)"><path fill="#ffffff" d="M 0.402344 0 L 224.480469 0 L 224.480469 128.472656 L 0.402344 128.472656 Z M 0.402344 0 " fill-opacity="1" fill-rule="nonzero"/><path fill="#ffffff" d="M 0.402344 0 L 224.480469 0 L 224.480469 121.003906 L 0.402344 121.003906 Z M 0.402344 0 " fill-opacity="1" fill-rule="nonzero"/><path fill="#b82727" d="M 0.402344 0 L 224.480469 0 L 224.480469 121.003906 L 0.402344 121.003906 Z M 0.402344 0 " fill-opacity="1" fill-rule="nonzero"/></g><path fill="#ffffff" d="M 120.527344 59.542969 C 120.597656 59.570312 120.667969 59.597656 120.738281 59.625 C 120.667969 59.597656 120.597656 59.570312 120.527344 59.542969 " fill-opacity="1" fill-rule="nonzero"/><path fill="#ffffff" d="M 120.09375 59.398438 C 120.167969 59.417969 120.242188 59.445312 120.316406 59.46875 C 120.242188 59.445312 120.167969 59.417969 120.09375 59.398438 " fill-opacity="1" fill-rule="nonzero"/><path fill="#ffffff" d="M 120.976562 59.722656 C 121.035156 59.75 121.097656 59.777344 121.15625 59.804688 C 121.09375 59.777344 121.035156 59.75 120.976562 59.722656 " fill-opacity="1" fill-rule="nonzero"/><path fill="#ffffff" d="M 115.296875 59.449219 C 115.308594 59.445312 115.316406 59.441406 115.328125 59.441406 C 115.316406 59.441406 115.308594 59.445312 115.296875 59.449219 " fill-opacity="1" fill-rule="nonzero"/><path fill="#ffffff" d="M 121.566406 60.007812 C 121.554688 60 121.539062 59.996094 121.527344 59.988281 C 121.539062 59.996094 121.554688 60 121.566406 60.007812 C 123.09375 60.820312 124.292969 62.070312 125.105469 63.546875 C 124.292969 62.070312 123.09375 60.820312 121.566406 60.007812 " fill-opacity="1" fill-rule="nonzero"/><path fill="#ffffff" d="M 118.703125 59.105469 C 118.730469 59.109375 118.753906 59.109375 118.78125 59.113281 C 118.753906 59.109375 118.730469 59.109375 118.703125 59.105469 " fill-opacity="1" fill-rule="nonzero"/><path fill="#ffffff" d="M 118.230469 59.0625 C 118.253906 59.066406 118.277344 59.066406 118.300781 59.070312 C 118.277344 59.066406 118.253906 59.066406 118.230469 59.0625 " fill-opacity="1" fill-rule="nonzero"/><path fill="#ffffff" d="M 117.019531 59.089844 C 117.039062 59.085938 117.058594 59.082031 117.078125 59.082031 C 117.058594 59.082031 117.039062 59.085938 117.019531 59.089844 " fill-opacity="1" fill-rule="nonzero"/><path fill="#ffffff" d="M 119.660156 59.277344 C 119.734375 59.296875 119.808594 59.316406 119.882812 59.335938 C 119.808594 59.316406 119.734375 59.296875 119.660156 59.277344 " fill-opacity="1" fill-rule="nonzero"/><path fill="#ffffff" d="M 119.230469 59.183594 C 119.273438 59.191406 119.320312 59.203125 119.363281 59.210938 C 119.320312 59.203125 119.273438 59.191406 119.230469 59.183594 " fill-opacity="1" fill-rule="nonzero"/><path fill="#ffffff" d="M 117.378906 59.0625 C 117.402344 59.058594 117.429688 59.058594 117.453125 59.058594 C 117.429688 59.058594 117.402344 59.058594 117.378906 59.0625 " fill-opacity="1" fill-rule="nonzero"/><path fill="#ffffff" d="M 114.945312 59.574219 C 114.960938 59.566406 114.976562 59.5625 114.996094 59.554688 C 114.976562 59.5625 114.960938 59.566406 114.945312 59.574219 " fill-opacity="1" fill-rule="nonzero"/><path fill="#ffffff" d="M 122.539062 72.382812 C 122.503906 72.429688 122.464844 72.476562 122.425781 72.523438 C 122.464844 72.476562 122.503906 72.429688 122.539062 72.382812 " fill-opacity="1" fill-rule="nonzero"/><path fill="#ffffff" d="M 116.851562 61.53125 C 116.550781 61.582031 116.25 61.65625 115.953125 61.757812 C 114.9375 62.105469 114.046875 62.71875 113.335938 63.539062 C 113.347656 63.523438 113.359375 63.511719 113.371094 63.5 C 114.304688 62.445312 115.535156 61.753906 116.851562 61.53125 " fill-opacity="1" fill-rule="nonzero"/><path fill="#ffffff" d="M 118.511719 61.5 C 118.519531 61.5 118.527344 61.503906 118.535156 61.503906 C 118.527344 61.503906 118.519531 61.5 118.511719 61.5 " fill-opacity="1" fill-rule="nonzero"/><path fill="#ffffff" d="M 119.867188 61.859375 C 119.917969 61.878906 119.96875 61.902344 120.019531 61.921875 C 119.96875 61.902344 119.917969 61.878906 119.867188 61.859375 " fill-opacity="1" fill-rule="nonzero"/><path fill="#ffffff" d="M 119.582031 61.753906 C 119.621094 61.765625 119.660156 61.78125 119.695312 61.792969 C 119.660156 61.78125 119.621094 61.765625 119.582031 61.753906 " fill-opacity="1" fill-rule="nonzero"/><path fill="#ffffff" d="M 120.15625 61.984375 C 120.242188 62.023438 120.324219 62.066406 120.410156 62.109375 C 120.324219 62.066406 120.242188 62.023438 120.15625 61.984375 " fill-opacity="1" fill-rule="nonzero"/><path fill="#ffffff" d="M 119.304688 61.667969 C 119.332031 61.675781 119.359375 61.683594 119.386719 61.691406 C 119.359375 61.683594 119.332031 61.675781 119.304688 61.667969 " fill-opacity="1" fill-rule="nonzero"/><path fill="#ffffff" d="M 123.917969 68.285156 C 123.910156 69.277344 123.703125 70.28125 123.273438 71.230469 C 123.703125 70.28125 123.910156 69.277344 123.917969 68.285156 " fill-opacity="1" fill-rule="nonzero"/><path fill="#ffffff" d="M 122.964844 71.789062 C 122.941406 71.828125 122.910156 71.867188 122.882812 71.910156 C 122.910156 71.867188 122.941406 71.828125 122.964844 71.789062 " fill-opacity="1" fill-rule="nonzero"/><path fill="#ffffff" d="M 119.066406 61.605469 C 119.074219 61.605469 119.078125 61.605469 119.082031 61.609375 C 119.078125 61.605469 119.074219 61.605469 119.066406 61.605469 " fill-opacity="1" fill-rule="nonzero"/><path fill="#ffffff" d="M 122.765625 72.082031 C 122.734375 72.125 122.699219 72.167969 122.667969 72.214844 C 122.699219 72.167969 122.734375 72.125 122.765625 72.082031 " fill-opacity="1" fill-rule="nonzero"/><path fill="#ffffff" d="M 123.132812 71.503906 C 123.117188 71.539062 123.09375 71.570312 123.078125 71.601562 C 123.09375 71.570312 123.117188 71.539062 123.132812 71.503906 " fill-opacity="1" fill-rule="nonzero"/><path fill="#ffffff" d="M 119.953125 74.964844 C 119.886719 75.023438 119.820312 75.082031 119.753906 75.136719 C 119.820312 75.082031 119.886719 75.023438 119.953125 74.964844 " fill-opacity="1" fill-rule="nonzero"/><path fill="#ffffff" d="M 121.714844 73.324219 C 121.664062 73.375 121.613281 73.425781 121.5625 73.476562 C 121.613281 73.425781 121.664062 73.375 121.714844 73.324219 " fill-opacity="1" fill-rule="nonzero"/><path fill="#ffffff" d="M 118.1875 61.46875 C 118.234375 61.472656 118.28125 61.476562 118.328125 61.480469 C 118.28125 61.476562 118.234375 61.472656 118.1875 61.46875 " fill-opacity="1" fill-rule="nonzero"/><path fill="#ffffff" d="M 121.394531 73.644531 C 121.339844 73.699219 121.289062 73.753906 121.234375 73.804688 C 121.289062 73.753906 121.339844 73.699219 121.394531 73.644531 " fill-opacity="1" fill-rule="nonzero"/><path fill="#ffffff" d="M 117.855469 61.453125 C 117.914062 61.453125 117.976562 61.457031 118.035156 61.457031 C 117.976562 61.457031 117.914062 61.453125 117.855469 61.453125 " fill-opacity="1" fill-rule="nonzero"/><path fill="#ffffff" d="M 119.558594 75.296875 C 119.492188 75.355469 119.421875 75.414062 119.351562 75.472656 C 119.421875 75.414062 119.492188 75.355469 119.558594 75.296875 " fill-opacity="1" fill-rule="nonzero"/><path fill="#ffffff" d="M 121.058594 73.972656 C 121 74.027344 120.941406 74.082031 120.882812 74.136719 C 120.941406 74.082031 121 74.027344 121.058594 73.972656 " fill-opacity="1" fill-rule="nonzero"/><path fill="#ffffff" d="M 119.195312 75.597656 C 119.035156 75.726562 118.878906 75.855469 118.714844 75.984375 C 118.878906 75.855469 119.035156 75.726562 119.195312 75.597656 " fill-opacity="1" fill-rule="nonzero"/><path fill="#ffffff" d="M 120.703125 74.300781 C 120.644531 74.359375 120.582031 74.414062 120.519531 74.46875 C 120.582031 74.414062 120.644531 74.359375 120.703125 74.300781 " fill-opacity="1" fill-rule="nonzero"/><path fill="#ffffff" d="M 117.554688 61.457031 C 117.609375 61.457031 117.664062 61.453125 117.71875 61.453125 C 117.664062 61.453125 117.609375 61.457031 117.554688 61.457031 " fill-opacity="1" fill-rule="nonzero"/><path fill="#ffffff" d="M 120.335938 74.636719 C 120.269531 74.691406 120.207031 74.746094 120.144531 74.800781 C 120.207031 74.746094 120.269531 74.691406 120.335938 74.636719 " fill-opacity="1" fill-rule="nonzero"/><path fill="#ffffff" d="M 122.011719 73.003906 C 121.964844 73.054688 121.917969 73.105469 121.871094 73.15625 C 121.917969 73.105469 121.964844 73.054688 122.011719 73.003906 " fill-opacity="1" fill-rule="nonzero"/><path fill="#ffffff" d="M 118.539062 76.121094 C 118.460938 76.183594 118.382812 76.246094 118.304688 76.304688 C 118.382812 76.246094 118.460938 76.183594 118.539062 76.121094 " fill-opacity="1" fill-rule="nonzero"/><path fill="#ffffff" d="M 117.230469 61.480469 C 117.296875 61.472656 117.363281 61.46875 117.429688 61.464844 C 117.363281 61.46875 117.296875 61.472656 117.230469 61.480469 " fill-opacity="1" fill-rule="nonzero"/><path fill="#ffffff" d="M 116.886719 61.523438 C 116.972656 61.511719 117.054688 61.5 117.140625 61.488281 C 117.054688 61.5 116.972656 61.511719 116.886719 61.523438 " fill-opacity="1" fill-rule="nonzero"/><path fill="#ffffff" d="M 118.117188 76.453125 C 118.039062 76.511719 117.960938 76.570312 117.882812 76.628906 C 117.960938 76.570312 118.039062 76.511719 118.117188 76.453125 " fill-opacity="1" fill-rule="nonzero"/><path fill="#ffffff" d="M 122.289062 72.691406 C 122.246094 72.738281 122.203125 72.785156 122.160156 72.835938 C 122.203125 72.785156 122.246094 72.738281 122.289062 72.691406 " fill-opacity="1" fill-rule="nonzero"/><g clip-path="url(#fe857f5be6)"><path fill="#ffffff" d="M 132.171875 84.210938 C 132.171875 85.136719 131.421875 85.890625 130.5 85.890625 L 94.453125 85.890625 C 93.53125 85.890625 92.78125 85.136719 92.78125 84.210938 L 92.78125 65.367188 L 105.824219 52.269531 L 109.886719 48.183594 C 110.019531 48.070312 111.210938 47.074219 112.644531 47.074219 C 113.53125 47.074219 114.335938 47.453125 115.109375 48.230469 L 119.132812 52.269531 L 132.171875 65.367188 Z M 89.796875 64.96875 L 85.3125 60.632812 L 95.359375 50.539062 C 96.503906 49.394531 97.644531 48.246094 98.785156 47.097656 C 101.121094 44.75 103.535156 42.320312 105.917969 39.9375 C 106.246094 39.609375 106.574219 39.265625 106.886719 38.933594 C 108.605469 37.125 110.226562 35.417969 112.542969 35.417969 C 114.296875 35.417969 115.59375 36.382812 117.117188 37.941406 L 117.148438 37.976562 C 119.195312 40.074219 121.316406 42.246094 123.433594 44.351562 C 124.597656 45.515625 125.777344 46.703125 126.921875 47.855469 C 127.59375 48.535156 128.269531 49.214844 128.949219 49.894531 C 129.667969 50.621094 130.390625 51.34375 131.113281 52.066406 C 132.230469 53.1875 133.34375 54.304688 134.460938 55.429688 C 135.417969 56.390625 136.375 57.351562 137.332031 58.3125 L 139.636719 60.628906 L 139.640625 60.632812 L 135.15625 64.96875 L 116.800781 46.53125 C 115.574219 45.296875 114.175781 44.671875 112.644531 44.671875 C 110.1875 44.671875 108.335938 46.359375 108.257812 46.429688 C 108.246094 46.441406 108.234375 46.453125 108.222656 46.464844 Z M 94.234375 38.191406 L 98.085938 38.191406 L 98.085938 44.402344 C 97.753906 44.734375 97.421875 45.070312 97.09375 45.402344 C 96.140625 46.359375 95.1875 47.316406 94.234375 48.273438 Z M 134.5625 67.695312 C 134.742188 67.792969 134.941406 67.851562 135.140625 67.851562 C 135.441406 67.851562 135.738281 67.738281 135.972656 67.515625 L 142.179688 61.515625 C 142.410156 61.289062 142.539062 60.984375 142.542969 60.660156 C 142.546875 60.339844 142.421875 60.027344 142.195312 59.800781 L 139.023438 56.613281 C 138.066406 55.652344 137.105469 54.695312 136.152344 53.730469 C 135.035156 52.609375 133.917969 51.488281 132.800781 50.367188 C 132.078125 49.644531 131.359375 48.921875 130.636719 48.199219 C 129.960938 47.519531 129.289062 46.839844 128.613281 46.160156 C 127.46875 45.007812 126.289062 43.816406 125.117188 42.648438 C 123.011719 40.550781 120.898438 38.386719 118.851562 36.292969 L 118.820312 36.261719 C 117.175781 34.578125 115.277344 33.019531 112.542969 33.019531 C 109.203125 33.019531 107.054688 35.28125 105.160156 37.277344 C 104.839844 37.613281 104.535156 37.929688 104.230469 38.238281 C 102.984375 39.484375 101.726562 40.746094 100.476562 42 L 100.476562 36.992188 C 100.476562 36.332031 99.941406 35.792969 99.28125 35.792969 L 93.039062 35.792969 C 92.378906 35.792969 91.84375 36.332031 91.84375 36.992188 L 91.84375 50.675781 L 82.761719 59.800781 C 82.535156 60.027344 82.40625 60.339844 82.410156 60.660156 C 82.414062 60.984375 82.546875 61.289062 82.777344 61.515625 L 88.984375 67.515625 C 89.371094 67.886719 89.941406 67.945312 90.390625 67.695312 L 90.390625 84.210938 C 90.390625 86.460938 92.214844 88.289062 94.453125 88.289062 L 130.5 88.289062 C 132.742188 88.289062 134.5625 86.460938 134.5625 84.210938 L 134.5625 67.695312 " fill-opacity="1" fill-rule="nonzero"/></g><path fill="#ffffff" d="M 119.082031 61.609375 C 119.15625 61.625 119.230469 61.644531 119.304688 61.667969 C 119.332031 61.675781 119.359375 61.683594 119.386719 61.691406 C 119.453125 61.710938 119.519531 61.730469 119.582031 61.753906 C 119.621094 61.765625 119.660156 61.78125 119.695312 61.792969 C 119.753906 61.816406 119.8125 61.835938 119.867188 61.859375 C 119.917969 61.878906 119.96875 61.902344 120.019531 61.921875 C 120.066406 61.945312 120.113281 61.964844 120.15625 61.984375 C 120.242188 62.023438 120.324219 62.066406 120.410156 62.109375 C 120.421875 62.117188 120.433594 62.121094 120.445312 62.128906 C 122.664062 63.308594 123.941406 65.75 123.917969 68.285156 C 123.910156 69.277344 123.703125 70.28125 123.273438 71.230469 C 123.230469 71.320312 123.183594 71.414062 123.132812 71.503906 C 123.117188 71.539062 123.09375 71.570312 123.078125 71.601562 C 123.039062 71.664062 123.003906 71.726562 122.964844 71.789062 C 122.941406 71.828125 122.910156 71.867188 122.882812 71.910156 C 122.847656 71.964844 122.808594 72.023438 122.765625 72.082031 C 122.734375 72.125 122.699219 72.167969 122.667969 72.214844 C 122.625 72.269531 122.585938 72.324219 122.539062 72.382812 C 122.503906 72.429688 122.464844 72.476562 122.425781 72.523438 C 122.382812 72.578125 122.335938 72.632812 122.289062 72.691406 C 122.246094 72.738281 122.203125 72.785156 122.160156 72.835938 C 122.113281 72.890625 122.0625 72.945312 122.011719 73.003906 C 121.964844 73.054688 121.917969 73.105469 121.871094 73.15625 C 121.820312 73.210938 121.765625 73.265625 121.714844 73.324219 C 121.664062 73.375 121.613281 73.425781 121.5625 73.476562 C 121.507812 73.535156 121.453125 73.589844 121.394531 73.644531 C 121.339844 73.699219 121.289062 73.753906 121.234375 73.804688 C 121.175781 73.859375 121.117188 73.917969 121.058594 73.972656 C 121 74.027344 120.941406 74.082031 120.882812 74.136719 C 120.824219 74.191406 120.765625 74.246094 120.703125 74.300781 C 120.644531 74.359375 120.582031 74.414062 120.519531 74.46875 C 120.460938 74.523438 120.398438 74.578125 120.335938 74.636719 C 120.269531 74.691406 120.207031 74.746094 120.144531 74.800781 C 120.082031 74.859375 120.015625 74.914062 119.953125 74.964844 C 119.886719 75.023438 119.820312 75.082031 119.753906 75.136719 C 119.6875 75.191406 119.625 75.246094 119.558594 75.296875 C 119.492188 75.355469 119.421875 75.414062 119.351562 75.472656 C 119.300781 75.515625 119.246094 75.554688 119.195312 75.597656 C 119.035156 75.726562 118.878906 75.855469 118.714844 75.984375 C 118.65625 76.03125 118.597656 76.078125 118.539062 76.121094 C 118.460938 76.183594 118.382812 76.246094 118.304688 76.304688 C 118.242188 76.355469 118.179688 76.402344 118.117188 76.453125 C 118.039062 76.511719 117.960938 76.570312 117.882812 76.628906 C 117.820312 76.679688 117.753906 76.726562 117.691406 76.777344 C 117.613281 76.835938 117.535156 76.894531 117.457031 76.953125 C 117.390625 77 117.328125 77.050781 117.261719 77.097656 C 117.183594 77.15625 117.105469 77.210938 117.027344 77.269531 C 116.960938 77.316406 116.898438 77.367188 116.832031 77.414062 C 116.753906 77.46875 116.679688 77.523438 116.601562 77.582031 C 116.535156 77.628906 116.46875 77.675781 116.402344 77.722656 C 116.328125 77.777344 116.25 77.832031 116.175781 77.882812 C 116.109375 77.933594 116.042969 77.980469 115.976562 78.027344 C 115.902344 78.078125 115.828125 78.132812 115.753906 78.183594 C 115.6875 78.230469 115.621094 78.277344 115.554688 78.324219 C 115.480469 78.371094 115.410156 78.421875 115.339844 78.472656 C 115.269531 78.519531 115.203125 78.566406 115.136719 78.609375 C 115.066406 78.660156 115 78.707031 114.929688 78.753906 C 114.863281 78.796875 114.796875 78.84375 114.726562 78.890625 C 114.664062 78.933594 114.597656 78.980469 114.53125 79.023438 C 114.460938 79.070312 114.394531 79.113281 114.328125 79.160156 C 114.265625 79.199219 114.203125 79.242188 114.140625 79.28125 C 114.070312 79.332031 114 79.375 113.929688 79.421875 C 113.875 79.457031 113.820312 79.496094 113.765625 79.53125 C 113.679688 79.589844 113.59375 79.644531 113.503906 79.703125 C 113.472656 79.722656 113.4375 79.746094 113.40625 79.765625 C 113.289062 79.84375 113.171875 79.917969 113.058594 79.988281 C 113.035156 80.003906 113.011719 80.019531 112.984375 80.035156 C 112.898438 80.09375 112.8125 80.148438 112.726562 80.199219 C 112.695312 80.21875 112.667969 80.238281 112.636719 80.257812 C 112.574219 80.296875 112.511719 80.335938 112.449219 80.375 C 109.382812 78.449219 102.929688 73.988281 101.683594 71.230469 C 100.15625 67.855469 101.425781 63.769531 104.507812 62.128906 C 105.351562 61.679688 106.25 61.449219 107.175781 61.449219 C 108.511719 61.449219 109.820312 61.941406 110.878906 62.816406 C 110.585938 63.253906 110.320312 63.71875 110.097656 64.214844 C 109.824219 64.816406 110.089844 65.527344 110.691406 65.804688 C 111.292969 66.078125 112 65.808594 112.273438 65.207031 C 112.554688 64.585938 112.914062 64.023438 113.335938 63.539062 C 114.046875 62.71875 114.9375 62.105469 115.953125 61.757812 C 116.25 61.65625 116.550781 61.582031 116.851562 61.53125 C 116.863281 61.527344 116.875 61.527344 116.886719 61.523438 C 116.972656 61.511719 117.054688 61.5 117.140625 61.488281 C 117.167969 61.484375 117.199219 61.484375 117.230469 61.480469 C 117.296875 61.472656 117.363281 61.46875 117.429688 61.464844 C 117.46875 61.460938 117.511719 61.457031 117.554688 61.457031 C 117.609375 61.457031 117.664062 61.453125 117.71875 61.453125 C 117.765625 61.453125 117.808594 61.453125 117.855469 61.453125 C 117.914062 61.453125 117.976562 61.457031 118.035156 61.457031 C 118.085938 61.460938 118.136719 61.464844 118.1875 61.46875 C 118.234375 61.472656 118.28125 61.476562 118.328125 61.480469 C 118.390625 61.488281 118.453125 61.492188 118.511719 61.5 C 118.519531 61.5 118.527344 61.503906 118.535156 61.503906 C 118.714844 61.527344 118.890625 61.5625 119.066406 61.605469 C 119.074219 61.605469 119.078125 61.605469 119.082031 61.609375 Z M 118.703125 59.105469 C 118.570312 59.089844 118.4375 59.078125 118.300781 59.070312 C 118.277344 59.066406 118.253906 59.066406 118.230469 59.0625 C 118.089844 59.054688 117.949219 59.050781 117.808594 59.050781 C 117.789062 59.050781 117.769531 59.050781 117.75 59.050781 C 117.652344 59.050781 117.550781 59.054688 117.453125 59.058594 C 117.429688 59.058594 117.402344 59.058594 117.378906 59.0625 C 117.277344 59.066406 117.179688 59.074219 117.078125 59.082031 C 117.058594 59.082031 117.039062 59.085938 117.019531 59.089844 C 116.914062 59.097656 116.808594 59.109375 116.703125 59.125 C 116.703125 59.125 116.699219 59.125 116.699219 59.125 C 116.238281 59.1875 115.78125 59.292969 115.328125 59.441406 C 115.316406 59.441406 115.308594 59.445312 115.296875 59.449219 C 115.257812 59.460938 115.21875 59.472656 115.183594 59.484375 C 115.117188 59.507812 115.058594 59.53125 114.996094 59.554688 C 114.976562 59.5625 114.960938 59.566406 114.945312 59.574219 C 114.039062 59.914062 113.207031 60.40625 112.472656 61.027344 C 110.976562 59.757812 109.101562 59.050781 107.175781 59.050781 C 105.855469 59.050781 104.582031 59.371094 103.390625 60.007812 C 99.210938 62.234375 97.46875 67.714844 99.503906 72.222656 C 101.390625 76.394531 110.769531 82.164062 111.832031 82.808594 C 111.835938 82.8125 111.84375 82.816406 111.847656 82.816406 C 111.875 82.835938 111.90625 82.847656 111.9375 82.863281 C 111.953125 82.871094 111.972656 82.882812 111.992188 82.890625 C 112.019531 82.902344 112.050781 82.910156 112.082031 82.921875 C 112.101562 82.929688 112.121094 82.9375 112.140625 82.941406 C 112.175781 82.949219 112.210938 82.957031 112.242188 82.960938 C 112.261719 82.964844 112.277344 82.96875 112.292969 82.972656 C 112.34375 82.980469 112.398438 82.984375 112.449219 82.984375 C 112.609375 82.984375 112.765625 82.953125 112.917969 82.886719 C 112.96875 82.863281 113.015625 82.839844 113.0625 82.8125 C 114.132812 82.167969 123.5625 76.394531 125.449219 72.222656 C 126.742188 69.363281 126.511719 66.113281 125.105469 63.546875 C 124.292969 62.070312 123.09375 60.820312 121.566406 60.007812 C 121.554688 60 121.539062 59.996094 121.527344 59.988281 C 121.40625 59.921875 121.28125 59.863281 121.15625 59.804688 C 121.097656 59.777344 121.035156 59.75 120.976562 59.722656 C 120.898438 59.691406 120.820312 59.65625 120.738281 59.625 C 120.667969 59.597656 120.597656 59.570312 120.527344 59.542969 C 120.457031 59.519531 120.386719 59.492188 120.316406 59.46875 C 120.242188 59.445312 120.167969 59.417969 120.09375 59.398438 C 120.023438 59.375 119.953125 59.355469 119.882812 59.335938 C 119.808594 59.316406 119.734375 59.296875 119.660156 59.277344 C 119.5625 59.253906 119.464844 59.230469 119.363281 59.210938 C 119.320312 59.203125 119.273438 59.191406 119.230469 59.183594 C 119.082031 59.15625 118.929688 59.132812 118.78125 59.113281 C 118.753906 59.109375 118.730469 59.109375 118.703125 59.105469 " fill-opacity="1" fill-rule="nonzero"/><g clip-path="url(#8bee421387)"><path fill="#ffffff" d="M 89.390625 85.890625 L 78.597656 85.890625 C 77.941406 85.890625 77.402344 86.429688 77.402344 87.089844 C 77.402344 87.753906 77.941406 88.289062 78.597656 88.289062 L 89.390625 88.289062 C 90.046875 88.289062 90.582031 87.753906 90.582031 87.089844 C 90.582031 86.429688 90.046875 85.890625 89.390625 85.890625 " fill-opacity="1" fill-rule="nonzero"/></g><g clip-path="url(#cb4f7cfa93)"><path fill="#ffffff" d="M 146.355469 85.890625 L 135.566406 85.890625 C 134.90625 85.890625 134.371094 86.429688 134.371094 87.089844 C 134.371094 87.753906 134.90625 88.292969 135.566406 88.292969 L 146.355469 88.292969 C 147.015625 88.292969 147.550781 87.753906 147.550781 87.089844 C 147.550781 86.429688 147.015625 85.890625 146.355469 85.890625 " fill-opacity="1" fill-rule="nonzero"/></g></svg>